<svg width="78" height="62" viewBox="0 0 78 62" fill="none" xmlns="http://www.w3.org/2000/svg">
<path d="M22.3826 62C18.1808 62 14.383 61.0534 10.9893 59.1603C7.6494 57.2672 4.98289 54.6904 2.98973 51.43C1.05045 48.1171 0.0538692 44.4097 0 40.3079V3.07633C0 2.12977 0.269345 1.39355 0.808035 0.867682C1.4006 0.289227 2.1817 0 3.15134 0C4.06711 0 4.79435 0.289227 5.33304 0.867682C5.9256 1.39355 6.22188 2.12977 6.22188 3.07633V26.2672C7.99955 23.7956 10.3429 21.8236 13.2518 20.3511C16.2146 18.8261 19.5006 18.0636 23.1098 18.0636C27.2577 18.0636 30.9747 19.0365 34.2607 20.9822C37.5467 22.8753 40.1324 25.4784 42.0179 28.7914C43.9571 32.1043 44.9268 35.838 44.9268 39.9924C44.9268 44.1993 43.9302 47.9593 41.9371 51.2723C39.9978 54.5852 37.3312 57.2146 33.9375 59.1603C30.5438 61.0534 26.6921 62 22.3826 62ZM22.3826 56.4784C25.507 56.4784 28.3082 55.7684 30.7862 54.3486C33.2641 52.8762 35.2034 50.9042 36.604 48.4326C38.0585 45.961 38.7857 43.1476 38.7857 39.9924C38.7857 36.8897 38.0585 34.1026 36.604 31.631C35.2034 29.1069 33.2641 27.1349 30.7862 25.715C28.3082 24.2952 25.507 23.5852 22.3826 23.5852C19.3121 23.5852 16.5378 24.2952 14.0598 25.715C11.5818 27.1349 9.64256 29.1069 8.24196 31.631C6.84137 34.1026 6.14107 36.8897 6.14107 39.9924C6.14107 43.1476 6.84137 45.961 8.24196 48.4326C9.64256 50.9042 11.5818 52.8762 14.0598 54.3486C16.5378 55.7684 19.3121 56.4784 22.3826 56.4784Z" fill="black"/>
<path d="M53.2611 35.539C53.4227 32.2963 54.2846 29.3935 55.8468 26.8308C57.4629 24.268 59.5368 22.2544 62.0687 20.7899C64.6544 19.3255 67.5094 18.5932 70.6338 18.5932C73.1118 18.5932 75.0242 18.9332 76.3709 19.6131C77.7176 20.293 78.2294 21.2868 77.9062 22.5943C77.6907 23.3788 77.3136 23.9019 76.7749 24.1634C76.2901 24.4249 75.6706 24.5295 74.9164 24.4772C74.2161 24.4249 73.4081 24.3726 72.4923 24.3203C69.4757 24.0588 66.7822 24.3726 64.412 25.2617C62.0956 26.0985 60.2371 27.4061 58.8365 29.1843C57.4898 30.9626 56.8164 33.0808 56.8164 35.539H53.2611ZM53.7459 61.9775C52.7763 61.9775 52.0221 61.716 51.4834 61.1929C50.9447 60.6699 50.6754 59.9377 50.6754 58.9963V22.0452C50.6754 21.1037 50.9447 20.3715 51.4834 19.8485C52.0221 19.3255 52.7763 19.064 53.7459 19.064C54.7155 19.064 55.4697 19.3255 56.0084 19.8485C56.5471 20.3715 56.8164 21.1037 56.8164 22.0452V58.9963C56.8164 59.9377 56.5471 60.6699 56.0084 61.1929C55.4697 61.716 54.7155 61.9775 53.7459 61.9775Z" fill="black"/>
<path d="M75.8399 9.0149C75.8399 11.1931 74.0311 12.9589 71.7997 12.9589C69.5684 12.9589 67.7596 11.1931 67.7596 9.0149C67.7596 6.83668 69.5684 5.07088 71.7997 5.07088C74.0311 5.07088 75.8399 6.83668 75.8399 9.0149Z" fill="black"/>
<path d="M68.3367 32.9607C68.3367 31.2493 69.758 29.8619 71.5112 29.8619C73.2643 29.8619 74.6856 31.2493 74.6856 32.9607V58.8786C74.6856 60.59 73.2643 61.9775 71.5112 61.9775C69.758 61.9775 68.3367 60.59 68.3367 58.8786V32.9607Z" fill="black"/>
</svg>
