<svg width="543" height="284" viewBox="0 0 543 284" fill="none" xmlns="http://www.w3.org/2000/svg">
<path d="M99.6949 282.524C80.9796 282.524 64.0638 278.211 48.9477 269.584C34.0714 260.958 22.1944 249.216 13.3166 234.359C4.67882 219.262 0.23994 202.368 0 183.677V14.0184C0 9.70502 1.1997 6.3502 3.59909 3.95389C6.23843 1.31796 9.71755 0 14.0365 0C18.1154 0 21.3546 1.31796 23.754 3.95389C26.3933 6.3502 27.713 9.70502 27.713 14.0184V119.695C35.631 108.433 46.0684 99.4467 59.0251 92.737C72.2218 85.7877 86.8581 82.3131 102.934 82.3131C121.409 82.3131 137.965 86.7462 152.602 95.6126C167.238 104.239 178.755 116.101 187.153 131.198C195.791 146.294 200.11 163.308 200.11 182.239C200.11 201.409 195.671 218.543 186.793 233.64C178.155 248.736 166.278 260.718 151.162 269.584C136.046 278.211 118.89 282.524 99.6949 282.524ZM99.6949 257.363C113.611 257.363 126.088 254.128 137.125 247.658C148.163 240.948 156.8 231.962 163.039 220.7C169.517 209.437 172.756 196.617 172.756 182.239C172.756 168.101 169.517 155.4 163.039 144.138C156.8 132.635 148.163 123.649 137.125 117.179C126.088 110.709 113.611 107.474 99.6949 107.474C86.0183 107.474 73.6614 110.709 62.6242 117.179C51.587 123.649 42.9492 132.635 36.7107 144.138C30.4723 155.4 27.3531 168.101 27.3531 182.239C27.3531 196.617 30.4723 209.437 36.7107 220.7C42.9492 231.962 51.587 240.948 62.6242 247.658C73.6614 254.128 86.0183 257.363 99.6949 257.363Z" fill="black"/>
<path d="M237.09 162.367C237.795 147.51 241.552 134.21 248.363 122.468C255.409 110.726 264.451 101.501 275.489 94.791C286.763 88.0813 299.21 84.7265 312.832 84.7265C323.635 84.7265 331.973 86.2841 337.844 89.3993C343.716 92.5145 345.947 97.0675 344.538 103.058C343.598 106.653 341.954 109.049 339.606 110.247C337.492 111.445 334.791 111.925 331.503 111.685C328.45 111.445 324.927 111.206 320.935 110.966C307.782 109.768 296.04 111.206 285.706 115.279C275.607 119.113 267.504 125.104 261.398 133.252C255.527 141.399 252.591 151.104 252.591 162.367H237.09ZM239.204 283.5C234.976 283.5 231.688 282.302 229.34 279.906C226.991 277.509 225.817 274.154 225.817 269.841V100.542C225.817 96.2288 226.991 92.8739 229.34 90.4776C231.688 88.0813 234.976 86.8832 239.204 86.8832C243.431 86.8832 246.719 88.0813 249.068 90.4776C251.416 92.8739 252.591 96.2288 252.591 100.542V269.841C252.591 274.154 251.416 277.509 249.068 279.906C246.719 282.302 243.431 283.5 239.204 283.5Z" fill="black"/>
<path d="M301.809 41.0795C301.809 31.1537 309.866 23.1072 319.805 23.1072C329.743 23.1072 337.8 31.1537 337.8 41.0795C337.8 51.0053 329.743 59.0518 319.805 59.0518C309.866 59.0518 301.809 51.0053 301.809 41.0795Z" fill="black"/>
<path d="M306.951 148.913C306.951 141.823 312.706 136.076 319.805 136.076C326.904 136.076 332.659 141.823 332.659 148.913V269.584C332.659 276.674 326.904 282.422 319.805 282.422C312.706 282.422 306.951 276.674 306.951 269.584V148.913Z" fill="black"/>
<path d="M458.061 282.37C438.626 282.37 421.351 278.177 406.234 269.79C391.358 261.163 379.601 249.301 370.963 234.205C362.565 219.108 358.367 201.854 358.367 182.444C358.367 162.795 362.326 145.541 370.244 130.684C378.401 115.587 389.559 103.726 403.715 95.0991C417.872 86.4724 434.187 82.159 452.663 82.159C470.898 82.159 486.734 86.3526 500.171 94.7396C513.847 102.887 524.405 114.27 531.843 128.887C539.281 143.504 543 160.159 543 178.85C543 182.684 541.8 185.799 539.401 188.196C537.001 190.352 533.882 191.431 530.043 191.431H377.082V168.426H532.922L517.446 179.569C517.686 165.67 515.167 153.209 509.888 142.186C504.61 131.163 497.052 122.537 487.214 116.306C477.616 110.076 466.099 106.961 452.663 106.961C438.986 106.961 426.989 110.196 416.672 116.666C406.354 123.136 398.316 132.122 392.558 143.624C387.039 154.887 384.28 167.827 384.28 182.444C384.28 197.062 387.399 210.002 393.638 221.265C400.116 232.527 408.874 241.394 419.911 247.864C430.948 254.334 443.665 257.569 458.061 257.569C466.699 257.569 475.337 256.131 483.975 253.255C492.853 250.14 499.931 246.306 505.209 241.753C507.849 239.596 510.848 238.518 514.207 238.518C517.566 238.278 520.446 239.117 522.845 241.034C525.964 243.91 527.524 247.025 527.524 250.38C527.764 253.734 526.444 256.61 523.565 259.006C515.647 265.716 505.569 271.347 493.332 275.9C481.096 280.214 469.339 282.37 458.061 282.37Z" fill="black"/>
</svg>
